<svg version="1" xmlns="http://www.w3.org/2000/svg" width="1066.667" height="1066.667" viewBox="0 0 800.000000 800.000000"><path d="M585.5 1.1c-70.3 4.5-134.4 48.4-165.4 113-15.1 31.4-20 57.9-20.1 108v19.5l-9 15.3c-5 8.5-9 15.5-9 15.6 0 .2-3.5 6.3-7.8 13.6-4.3 7.4-12.3 21-17.7 30.4-5.4 9.3-13.4 23-17.7 30.4-4.3 7.3-7.8 13.7-7.8 14.2s-.9.9-2 .9-2-.4-2-.9-3.5-6.9-7.8-14.2c-4.3-7.4-12.3-21.1-17.7-30.4-5.4-9.4-12.9-22.2-16.6-28.5-3.7-6.3-7.7-13.3-8.9-15.5-1.2-2.2-5.3-9.2-8.9-15.5-3.7-6.3-8.5-14.5-10.6-18.3l-3.9-6.7h-60.3c-41.5 0-60.3.3-60.3 1.1 0 .5 3.7 7.4 8.3 15.2 4.6 7.8 12.7 21.6 17.9 30.7 12.8 22 39.7 68.5 51.6 89 5.2 9.1 12.6 21.7 16.2 28 3.7 6.3 15 25.7 25 43s23.3 40.3 29.5 51c6.3 10.7 19.5 33.4 29.3 50.5 9.9 17 18.5 31 19.2 31 .7 0 9.3-14 19.2-31 9.8-17.1 23-39.8 29.3-50.5 6.2-10.7 19.5-33.7 29.5-51 10-17.3 21.3-36.7 25-43 3.6-6.3 11-18.9 16.2-28 11.9-20.5 38.8-67 51.6-89 5.2-9.1 13.3-22.9 17.9-30.7 4.6-7.8 8.3-14.7 8.3-15.2 0-.8 20.5-1.1 66-1.1 70 0 67.9-.1 64.6 4.5-.7 1.1-5.7 9.6-11.1 19-5.4 9.3-13.7 23.5-18.3 31.5-4.7 8-9.5 16.3-10.7 18.5-1.2 2.2-7.1 12.3-13 22.5s-15 25.9-20.3 35c-5.2 9.1-13.2 22.8-17.7 30.5-4.5 7.7-9.2 15.8-10.5 18-1.2 2.2-6.4 11.2-11.5 20s-14 24.1-19.7 34c-5.7 9.9-14.9 25.6-20.3 35-5.3 9.3-10.1 17.4-10.5 18-.4.5-1.9 3-3.2 5.5-2.5 4.5-18.6 32.3-37.3 64.5-5.4 9.3-13.5 23.3-18 31-4.5 7.7-11.8 20.4-16.3 28.1l-8.2 14.2 3.4 8.9c18.2 47.8 54.6 87.2 100.8 109.3 99.3 47.3 218 5.3 265.7-94.1 11.2-23.4 17.4-47.1 19.1-73.6 1.3-19.6 1.3-405 0-424.6C791.8 76.6 697.1-6.2 585.5 1.1z"/></svg>